<svg xmlns="http://www.w3.org/2000/svg" xmlns:xlink="http://www.w3.org/1999/xlink" width="600" zoomAndPan="magnify" viewBox="0 0 450 262.499992" height="350" preserveAspectRatio="xMidYMid meet" version="1.0"><defs><g/><clipPath id="81f786d8ea"><path d="M 348 130 L 449.570312 130 L 449.570312 254 L 348 254 Z M 348 130 " clip-rule="nonzero"/></clipPath></defs><g fill="#ff00ff" fill-opacity="1"><g transform="translate(-5.567588, 128.842921)"><g><path d="M 14.578125 0 C 12.503906 0 11 -0.460938 10.0625 -1.390625 C 9.132812 -2.316406 8.671875 -3.816406 8.671875 -5.890625 L 8.671875 -25.375 C 8.671875 -27.457031 9.132812 -28.960938 10.0625 -29.890625 C 11 -30.816406 12.503906 -31.28125 14.578125 -31.28125 L 30.78125 -31.28125 L 30.78125 -86.296875 L 14.578125 -86.296875 C 12.503906 -86.296875 11 -86.757812 10.0625 -87.6875 C 9.132812 -88.613281 8.671875 -90.113281 8.671875 -92.1875 L 8.671875 -112 C 8.671875 -114.070312 9.132812 -115.570312 10.0625 -116.5 C 11 -117.4375 12.503906 -117.90625 14.578125 -117.90625 L 84.328125 -117.90625 C 86.398438 -117.90625 87.898438 -117.4375 88.828125 -116.5 C 89.753906 -115.570312 90.21875 -114.070312 90.21875 -112 L 90.21875 -92.1875 C 90.21875 -90.113281 89.753906 -88.613281 88.828125 -87.6875 C 87.898438 -86.757812 86.398438 -86.296875 84.328125 -86.296875 L 68.453125 -86.296875 L 68.453125 -31.28125 L 84.328125 -31.28125 C 86.398438 -31.28125 87.898438 -30.816406 88.828125 -29.890625 C 89.753906 -28.960938 90.21875 -27.457031 90.21875 -25.375 L 90.21875 -5.890625 C 90.21875 -3.816406 89.753906 -2.316406 88.828125 -1.390625 C 87.898438 -0.460938 86.398438 0 84.328125 0 Z M 14.578125 0 "/></g></g></g><g fill="#ff00ff" fill-opacity="1"><g transform="translate(93.496697, 128.842921)"><g><path d="M 66.96875 0 L 40.453125 0 C 38.367188 0 36.863281 -0.460938 35.9375 -1.390625 C 35.007812 -2.316406 34.546875 -3.816406 34.546875 -5.890625 L 34.546875 -86.296875 L 10.484375 -86.296875 C 8.410156 -86.296875 6.90625 -86.757812 5.96875 -87.6875 C 5.039062 -88.613281 4.578125 -90.113281 4.578125 -92.1875 L 4.578125 -112 C 4.578125 -114.070312 5.039062 -115.570312 5.96875 -116.5 C 6.90625 -117.4375 8.410156 -117.90625 10.484375 -117.90625 L 96.9375 -117.90625 C 99.007812 -117.90625 100.507812 -117.4375 101.4375 -116.5 C 102.363281 -115.570312 102.828125 -114.070312 102.828125 -112 L 102.828125 -92.1875 C 102.828125 -90.113281 102.363281 -88.613281 101.4375 -87.6875 C 100.507812 -86.757812 99.007812 -86.296875 96.9375 -86.296875 L 72.875 -86.296875 L 72.875 -5.890625 C 72.875 -3.816406 72.40625 -2.316406 71.46875 -1.390625 C 70.539062 -0.460938 69.039062 0 66.96875 0 Z M 66.96875 0 "/></g></g></g><g fill="#ff00ff" fill-opacity="1"><g transform="translate(200.911852, 128.842921)"><g><path d="M 93.171875 0 L 17.1875 0 C 15.113281 0 13.613281 -0.460938 12.6875 -1.390625 C 11.757812 -2.316406 11.296875 -3.816406 11.296875 -5.890625 L 11.296875 -112 C 11.296875 -114.070312 11.757812 -115.570312 12.6875 -116.5 C 13.613281 -117.4375 15.113281 -117.90625 17.1875 -117.90625 L 93.171875 -117.90625 C 95.242188 -117.90625 96.742188 -117.4375 97.671875 -116.5 C 98.597656 -115.570312 99.0625 -114.070312 99.0625 -112 L 99.0625 -92.84375 C 99.0625 -90.769531 98.597656 -89.269531 97.671875 -88.34375 C 96.742188 -87.414062 95.242188 -86.953125 93.171875 -86.953125 L 47.984375 -86.953125 L 47.984375 -74.34375 L 79.90625 -74.34375 C 81.976562 -74.34375 83.476562 -73.878906 84.40625 -72.953125 C 85.34375 -72.023438 85.8125 -70.523438 85.8125 -68.453125 L 85.8125 -50.921875 C 85.8125 -48.847656 85.34375 -47.347656 84.40625 -46.421875 C 83.476562 -45.492188 81.976562 -45.03125 79.90625 -45.03125 L 47.984375 -45.03125 L 47.984375 -30.953125 L 93.171875 -30.953125 C 95.242188 -30.953125 96.742188 -30.488281 97.671875 -29.5625 C 98.597656 -28.632812 99.0625 -27.128906 99.0625 -25.046875 L 99.0625 -5.890625 C 99.0625 -3.816406 98.597656 -2.316406 97.671875 -1.390625 C 96.742188 -0.460938 95.242188 0 93.171875 0 Z M 93.171875 0 "/></g></g></g><g fill="#ff00ff" fill-opacity="1"><g transform="translate(307.99952, 128.842921)"><g><path d="M 41.59375 0 L 17.1875 0 C 15.113281 0 13.613281 -0.460938 12.6875 -1.390625 C 11.757812 -2.316406 11.296875 -3.816406 11.296875 -5.890625 L 11.296875 -112 C 11.296875 -114.070312 11.757812 -115.570312 12.6875 -116.5 C 13.613281 -117.4375 15.113281 -117.90625 17.1875 -117.90625 L 43.5625 -117.90625 C 45.300781 -117.90625 46.742188 -117.519531 47.890625 -116.75 C 49.035156 -115.988281 50.101562 -114.734375 51.09375 -112.984375 L 65.828125 -86.296875 C 66.367188 -85.316406 66.832031 -84.609375 67.21875 -84.171875 C 67.601562 -83.734375 68.125 -83.515625 68.78125 -83.515625 L 70.25 -83.515625 C 70.90625 -83.515625 71.421875 -83.734375 71.796875 -84.171875 C 72.179688 -84.609375 72.648438 -85.316406 73.203125 -86.296875 L 87.765625 -112.984375 C 88.753906 -114.734375 89.820312 -115.988281 90.96875 -116.75 C 92.113281 -117.519531 93.554688 -117.90625 95.296875 -117.90625 L 121.828125 -117.90625 C 123.898438 -117.90625 125.398438 -117.4375 126.328125 -116.5 C 127.253906 -115.570312 127.71875 -114.070312 127.71875 -112 L 127.71875 -5.890625 C 127.71875 -3.816406 127.253906 -2.316406 126.328125 -1.390625 C 125.398438 -0.460938 123.898438 0 121.828125 0 L 96.609375 0 C 94.535156 0 93.035156 -0.460938 92.109375 -1.390625 C 91.179688 -2.316406 90.71875 -3.816406 90.71875 -5.890625 L 90.71875 -63.53125 L 81.0625 -45.6875 C 80.070312 -43.832031 78.894531 -42.492188 77.53125 -41.671875 C 76.164062 -40.859375 74.445312 -40.453125 72.375 -40.453125 L 65.828125 -40.453125 C 63.753906 -40.453125 62.035156 -40.859375 60.671875 -41.671875 C 59.304688 -42.492188 58.132812 -43.832031 57.15625 -45.6875 L 47.484375 -63.53125 L 47.484375 -5.890625 C 47.484375 -3.816406 47.019531 -2.316406 46.09375 -1.390625 C 45.164062 -0.460938 43.664062 0 41.59375 0 Z M 41.59375 0 "/></g></g></g><g fill="#00ffff" fill-opacity="1"><g transform="translate(2.965177, 120.885989)"><g><path d="M 14.578125 0 C 12.503906 0 11 -0.460938 10.0625 -1.390625 C 9.132812 -2.316406 8.671875 -3.816406 8.671875 -5.890625 L 8.671875 -25.375 C 8.671875 -27.457031 9.132812 -28.960938 10.0625 -29.890625 C 11 -30.816406 12.503906 -31.28125 14.578125 -31.28125 L 30.78125 -31.28125 L 30.78125 -86.296875 L 14.578125 -86.296875 C 12.503906 -86.296875 11 -86.757812 10.0625 -87.6875 C 9.132812 -88.613281 8.671875 -90.113281 8.671875 -92.1875 L 8.671875 -112 C 8.671875 -114.070312 9.132812 -115.570312 10.0625 -116.5 C 11 -117.4375 12.503906 -117.90625 14.578125 -117.90625 L 84.328125 -117.90625 C 86.398438 -117.90625 87.898438 -117.4375 88.828125 -116.5 C 89.753906 -115.570312 90.21875 -114.070312 90.21875 -112 L 90.21875 -92.1875 C 90.21875 -90.113281 89.753906 -88.613281 88.828125 -87.6875 C 87.898438 -86.757812 86.398438 -86.296875 84.328125 -86.296875 L 68.453125 -86.296875 L 68.453125 -31.28125 L 84.328125 -31.28125 C 86.398438 -31.28125 87.898438 -30.816406 88.828125 -29.890625 C 89.753906 -28.960938 90.21875 -27.457031 90.21875 -25.375 L 90.21875 -5.890625 C 90.21875 -3.816406 89.753906 -2.316406 88.828125 -1.390625 C 87.898438 -0.460938 86.398438 0 84.328125 0 Z M 14.578125 0 "/></g></g></g><g fill="#00ffff" fill-opacity="1"><g transform="translate(102.029462, 120.885989)"><g><path d="M 66.96875 0 L 40.453125 0 C 38.367188 0 36.863281 -0.460938 35.9375 -1.390625 C 35.007812 -2.316406 34.546875 -3.816406 34.546875 -5.890625 L 34.546875 -86.296875 L 10.484375 -86.296875 C 8.410156 -86.296875 6.90625 -86.757812 5.96875 -87.6875 C 5.039062 -88.613281 4.578125 -90.113281 4.578125 -92.1875 L 4.578125 -112 C 4.578125 -114.070312 5.039062 -115.570312 5.96875 -116.5 C 6.90625 -117.4375 8.410156 -117.90625 10.484375 -117.90625 L 96.9375 -117.90625 C 99.007812 -117.90625 100.507812 -117.4375 101.4375 -116.5 C 102.363281 -115.570312 102.828125 -114.070312 102.828125 -112 L 102.828125 -92.1875 C 102.828125 -90.113281 102.363281 -88.613281 101.4375 -87.6875 C 100.507812 -86.757812 99.007812 -86.296875 96.9375 -86.296875 L 72.875 -86.296875 L 72.875 -5.890625 C 72.875 -3.816406 72.40625 -2.316406 71.46875 -1.390625 C 70.539062 -0.460938 69.039062 0 66.96875 0 Z M 66.96875 0 "/></g></g></g><g fill="#00ffff" fill-opacity="1"><g transform="translate(209.444618, 120.885989)"><g><path d="M 93.171875 0 L 17.1875 0 C 15.113281 0 13.613281 -0.460938 12.6875 -1.390625 C 11.757812 -2.316406 11.296875 -3.816406 11.296875 -5.890625 L 11.296875 -112 C 11.296875 -114.070312 11.757812 -115.570312 12.6875 -116.5 C 13.613281 -117.4375 15.113281 -117.90625 17.1875 -117.90625 L 93.171875 -117.90625 C 95.242188 -117.90625 96.742188 -117.4375 97.671875 -116.5 C 98.597656 -115.570312 99.0625 -114.070312 99.0625 -112 L 99.0625 -92.84375 C 99.0625 -90.769531 98.597656 -89.269531 97.671875 -88.34375 C 96.742188 -87.414062 95.242188 -86.953125 93.171875 -86.953125 L 47.984375 -86.953125 L 47.984375 -74.34375 L 79.90625 -74.34375 C 81.976562 -74.34375 83.476562 -73.878906 84.40625 -72.953125 C 85.34375 -72.023438 85.8125 -70.523438 85.8125 -68.453125 L 85.8125 -50.921875 C 85.8125 -48.847656 85.34375 -47.347656 84.40625 -46.421875 C 83.476562 -45.492188 81.976562 -45.03125 79.90625 -45.03125 L 47.984375 -45.03125 L 47.984375 -30.953125 L 93.171875 -30.953125 C 95.242188 -30.953125 96.742188 -30.488281 97.671875 -29.5625 C 98.597656 -28.632812 99.0625 -27.128906 99.0625 -25.046875 L 99.0625 -5.890625 C 99.0625 -3.816406 98.597656 -2.316406 97.671875 -1.390625 C 96.742188 -0.460938 95.242188 0 93.171875 0 Z M 93.171875 0 "/></g></g></g><g fill="#00ffff" fill-opacity="1"><g transform="translate(316.532285, 120.885989)"><g><path d="M 41.59375 0 L 17.1875 0 C 15.113281 0 13.613281 -0.460938 12.6875 -1.390625 C 11.757812 -2.316406 11.296875 -3.816406 11.296875 -5.890625 L 11.296875 -112 C 11.296875 -114.070312 11.757812 -115.570312 12.6875 -116.5 C 13.613281 -117.4375 15.113281 -117.90625 17.1875 -117.90625 L 43.5625 -117.90625 C 45.300781 -117.90625 46.742188 -117.519531 47.890625 -116.75 C 49.035156 -115.988281 50.101562 -114.734375 51.09375 -112.984375 L 65.828125 -86.296875 C 66.367188 -85.316406 66.832031 -84.609375 67.21875 -84.171875 C 67.601562 -83.734375 68.125 -83.515625 68.78125 -83.515625 L 70.25 -83.515625 C 70.90625 -83.515625 71.421875 -83.734375 71.796875 -84.171875 C 72.179688 -84.609375 72.648438 -85.316406 73.203125 -86.296875 L 87.765625 -112.984375 C 88.753906 -114.734375 89.820312 -115.988281 90.96875 -116.75 C 92.113281 -117.519531 93.554688 -117.90625 95.296875 -117.90625 L 121.828125 -117.90625 C 123.898438 -117.90625 125.398438 -117.4375 126.328125 -116.5 C 127.253906 -115.570312 127.71875 -114.070312 127.71875 -112 L 127.71875 -5.890625 C 127.71875 -3.816406 127.253906 -2.316406 126.328125 -1.390625 C 125.398438 -0.460938 123.898438 0 121.828125 0 L 96.609375 0 C 94.535156 0 93.035156 -0.460938 92.109375 -1.390625 C 91.179688 -2.316406 90.71875 -3.816406 90.71875 -5.890625 L 90.71875 -63.53125 L 81.0625 -45.6875 C 80.070312 -43.832031 78.894531 -42.492188 77.53125 -41.671875 C 76.164062 -40.859375 74.445312 -40.453125 72.375 -40.453125 L 65.828125 -40.453125 C 63.753906 -40.453125 62.035156 -40.859375 60.671875 -41.671875 C 59.304688 -42.492188 58.132812 -43.832031 57.15625 -45.6875 L 47.484375 -63.53125 L 47.484375 -5.890625 C 47.484375 -3.816406 47.019531 -2.316406 46.09375 -1.390625 C 45.164062 -0.460938 43.664062 0 41.59375 0 Z M 41.59375 0 "/></g></g></g><g fill="#000000" fill-opacity="1"><g transform="translate(-1.301206, 124.864455)"><g><path d="M 14.578125 0 C 12.503906 0 11 -0.460938 10.0625 -1.390625 C 9.132812 -2.316406 8.671875 -3.816406 8.671875 -5.890625 L 8.671875 -25.375 C 8.671875 -27.457031 9.132812 -28.960938 10.0625 -29.890625 C 11 -30.816406 12.503906 -31.28125 14.578125 -31.28125 L 30.78125 -31.28125 L 30.78125 -86.296875 L 14.578125 -86.296875 C 12.503906 -86.296875 11 -86.757812 10.0625 -87.6875 C 9.132812 -88.613281 8.671875 -90.113281 8.671875 -92.1875 L 8.671875 -112 C 8.671875 -114.070312 9.132812 -115.570312 10.0625 -116.5 C 11 -117.4375 12.503906 -117.90625 14.578125 -117.90625 L 84.328125 -117.90625 C 86.398438 -117.90625 87.898438 -117.4375 88.828125 -116.5 C 89.753906 -115.570312 90.21875 -114.070312 90.21875 -112 L 90.21875 -92.1875 C 90.21875 -90.113281 89.753906 -88.613281 88.828125 -87.6875 C 87.898438 -86.757812 86.398438 -86.296875 84.328125 -86.296875 L 68.453125 -86.296875 L 68.453125 -31.28125 L 84.328125 -31.28125 C 86.398438 -31.28125 87.898438 -30.816406 88.828125 -29.890625 C 89.753906 -28.960938 90.21875 -27.457031 90.21875 -25.375 L 90.21875 -5.890625 C 90.21875 -3.816406 89.753906 -2.316406 88.828125 -1.390625 C 87.898438 -0.460938 86.398438 0 84.328125 0 Z M 14.578125 0 "/></g></g></g><g fill="#000000" fill-opacity="1"><g transform="translate(97.763079, 124.864455)"><g><path d="M 66.96875 0 L 40.453125 0 C 38.367188 0 36.863281 -0.460938 35.9375 -1.390625 C 35.007812 -2.316406 34.546875 -3.816406 34.546875 -5.890625 L 34.546875 -86.296875 L 10.484375 -86.296875 C 8.410156 -86.296875 6.90625 -86.757812 5.96875 -87.6875 C 5.039062 -88.613281 4.578125 -90.113281 4.578125 -92.1875 L 4.578125 -112 C 4.578125 -114.070312 5.039062 -115.570312 5.96875 -116.5 C 6.90625 -117.4375 8.410156 -117.90625 10.484375 -117.90625 L 96.9375 -117.90625 C 99.007812 -117.90625 100.507812 -117.4375 101.4375 -116.5 C 102.363281 -115.570312 102.828125 -114.070312 102.828125 -112 L 102.828125 -92.1875 C 102.828125 -90.113281 102.363281 -88.613281 101.4375 -87.6875 C 100.507812 -86.757812 99.007812 -86.296875 96.9375 -86.296875 L 72.875 -86.296875 L 72.875 -5.890625 C 72.875 -3.816406 72.40625 -2.316406 71.46875 -1.390625 C 70.539062 -0.460938 69.039062 0 66.96875 0 Z M 66.96875 0 "/></g></g></g><g fill="#000000" fill-opacity="1"><g transform="translate(205.178235, 124.864455)"><g><path d="M 93.171875 0 L 17.1875 0 C 15.113281 0 13.613281 -0.460938 12.6875 -1.390625 C 11.757812 -2.316406 11.296875 -3.816406 11.296875 -5.890625 L 11.296875 -112 C 11.296875 -114.070312 11.757812 -115.570312 12.6875 -116.5 C 13.613281 -117.4375 15.113281 -117.90625 17.1875 -117.90625 L 93.171875 -117.90625 C 95.242188 -117.90625 96.742188 -117.4375 97.671875 -116.5 C 98.597656 -115.570312 99.0625 -114.070312 99.0625 -112 L 99.0625 -92.84375 C 99.0625 -90.769531 98.597656 -89.269531 97.671875 -88.34375 C 96.742188 -87.414062 95.242188 -86.953125 93.171875 -86.953125 L 47.984375 -86.953125 L 47.984375 -74.34375 L 79.90625 -74.34375 C 81.976562 -74.34375 83.476562 -73.878906 84.40625 -72.953125 C 85.34375 -72.023438 85.8125 -70.523438 85.8125 -68.453125 L 85.8125 -50.921875 C 85.8125 -48.847656 85.34375 -47.347656 84.40625 -46.421875 C 83.476562 -45.492188 81.976562 -45.03125 79.90625 -45.03125 L 47.984375 -45.03125 L 47.984375 -30.953125 L 93.171875 -30.953125 C 95.242188 -30.953125 96.742188 -30.488281 97.671875 -29.5625 C 98.597656 -28.632812 99.0625 -27.128906 99.0625 -25.046875 L 99.0625 -5.890625 C 99.0625 -3.816406 98.597656 -2.316406 97.671875 -1.390625 C 96.742188 -0.460938 95.242188 0 93.171875 0 Z M 93.171875 0 "/></g></g></g><g fill="#000000" fill-opacity="1"><g transform="translate(312.265903, 124.864455)"><g><path d="M 41.59375 0 L 17.1875 0 C 15.113281 0 13.613281 -0.460938 12.6875 -1.390625 C 11.757812 -2.316406 11.296875 -3.816406 11.296875 -5.890625 L 11.296875 -112 C 11.296875 -114.070312 11.757812 -115.570312 12.6875 -116.5 C 13.613281 -117.4375 15.113281 -117.90625 17.1875 -117.90625 L 43.5625 -117.90625 C 45.300781 -117.90625 46.742188 -117.519531 47.890625 -116.75 C 49.035156 -115.988281 50.101562 -114.734375 51.09375 -112.984375 L 65.828125 -86.296875 C 66.367188 -85.316406 66.832031 -84.609375 67.21875 -84.171875 C 67.601562 -83.734375 68.125 -83.515625 68.78125 -83.515625 L 70.25 -83.515625 C 70.90625 -83.515625 71.421875 -83.734375 71.796875 -84.171875 C 72.179688 -84.609375 72.648438 -85.316406 73.203125 -86.296875 L 87.765625 -112.984375 C 88.753906 -114.734375 89.820312 -115.988281 90.96875 -116.75 C 92.113281 -117.519531 93.554688 -117.90625 95.296875 -117.90625 L 121.828125 -117.90625 C 123.898438 -117.90625 125.398438 -117.4375 126.328125 -116.5 C 127.253906 -115.570312 127.71875 -114.070312 127.71875 -112 L 127.71875 -5.890625 C 127.71875 -3.816406 127.253906 -2.316406 126.328125 -1.390625 C 125.398438 -0.460938 123.898438 0 121.828125 0 L 96.609375 0 C 94.535156 0 93.035156 -0.460938 92.109375 -1.390625 C 91.179688 -2.316406 90.71875 -3.816406 90.71875 -5.890625 L 90.71875 -63.53125 L 81.0625 -45.6875 C 80.070312 -43.832031 78.894531 -42.492188 77.53125 -41.671875 C 76.164062 -40.859375 74.445312 -40.453125 72.375 -40.453125 L 65.828125 -40.453125 C 63.753906 -40.453125 62.035156 -40.859375 60.671875 -41.671875 C 59.304688 -42.492188 58.132812 -43.832031 57.15625 -45.6875 L 47.484375 -63.53125 L 47.484375 -5.890625 C 47.484375 -3.816406 47.019531 -2.316406 46.09375 -1.390625 C 45.164062 -0.460938 43.664062 0 41.59375 0 Z M 41.59375 0 "/></g></g></g><g fill="#ff00ff" fill-opacity="1"><g transform="translate(-9.330686, 259.233061)"><g><path d="M 93.171875 0 L 17.1875 0 C 15.113281 0 13.613281 -0.460938 12.6875 -1.390625 C 11.757812 -2.316406 11.296875 -3.816406 11.296875 -5.890625 L 11.296875 -112 C 11.296875 -114.070312 11.757812 -115.570312 12.6875 -116.5 C 13.613281 -117.4375 15.113281 -117.90625 17.1875 -117.90625 L 93.171875 -117.90625 C 95.242188 -117.90625 96.742188 -117.4375 97.671875 -116.5 C 98.597656 -115.570312 99.0625 -114.070312 99.0625 -112 L 99.0625 -92.84375 C 99.0625 -90.769531 98.597656 -89.269531 97.671875 -88.34375 C 96.742188 -87.414062 95.242188 -86.953125 93.171875 -86.953125 L 47.984375 -86.953125 L 47.984375 -74.34375 L 79.90625 -74.34375 C 81.976562 -74.34375 83.476562 -73.878906 84.40625 -72.953125 C 85.34375 -72.023438 85.8125 -70.523438 85.8125 -68.453125 L 85.8125 -50.921875 C 85.8125 -48.847656 85.34375 -47.347656 84.40625 -46.421875 C 83.476562 -45.492188 81.976562 -45.03125 79.90625 -45.03125 L 47.984375 -45.03125 L 47.984375 -30.953125 L 93.171875 -30.953125 C 95.242188 -30.953125 96.742188 -30.488281 97.671875 -29.5625 C 98.597656 -28.632812 99.0625 -27.128906 99.0625 -25.046875 L 99.0625 -5.890625 C 99.0625 -3.816406 98.597656 -2.316406 97.671875 -1.390625 C 96.742188 -0.460938 95.242188 0 93.171875 0 Z M 93.171875 0 "/></g></g></g><g fill="#ff00ff" fill-opacity="1"><g transform="translate(97.756994, 259.233061)"><g><path d="M 46.5 -5.890625 C 46.5 -3.816406 46.035156 -2.316406 45.109375 -1.390625 C 44.179688 -0.460938 42.679688 0 40.609375 0 L 15.71875 0 C 13.644531 0 12.144531 -0.460938 11.21875 -1.390625 C 10.289062 -2.316406 9.828125 -3.816406 9.828125 -5.890625 L 9.828125 -23.421875 C 9.828125 -28.441406 10.257812 -32.207031 11.125 -34.71875 C 12 -37.226562 13.640625 -40.175781 16.046875 -43.5625 L 29.3125 -61.40625 L 16.046875 -79.25 C 13.535156 -82.632812 11.867188 -85.582031 11.046875 -88.09375 C 10.234375 -90.601562 9.828125 -94.367188 9.828125 -99.390625 L 9.828125 -112 C 9.828125 -114.070312 10.289062 -115.570312 11.21875 -116.5 C 12.144531 -117.4375 13.644531 -117.90625 15.71875 -117.90625 L 40.9375 -117.90625 C 43.007812 -117.90625 44.507812 -117.4375 45.4375 -116.5 C 46.363281 -115.570312 46.828125 -114.070312 46.828125 -112 L 46.828125 -100.703125 C 46.828125 -99.609375 46.878906 -98.460938 46.984375 -97.265625 C 47.097656 -96.066406 47.539062 -94.921875 48.3125 -93.828125 L 55.515625 -83.515625 C 56.054688 -82.640625 56.625 -81.957031 57.21875 -81.46875 C 57.820312 -80.976562 58.5625 -80.734375 59.4375 -80.734375 L 61.40625 -80.734375 C 62.28125 -80.734375 62.988281 -80.976562 63.53125 -81.46875 C 64.082031 -81.957031 64.6875 -82.640625 65.34375 -83.515625 L 72.703125 -93.828125 C 73.460938 -94.921875 73.894531 -96.066406 74 -97.265625 C 74.113281 -98.460938 74.171875 -99.609375 74.171875 -100.703125 L 74.171875 -112 C 74.171875 -114.070312 74.632812 -115.570312 75.5625 -116.5 C 76.5 -117.4375 78.003906 -117.90625 80.078125 -117.90625 L 104.96875 -117.90625 C 107.039062 -117.90625 108.539062 -117.4375 109.46875 -116.5 C 110.394531 -115.570312 110.859375 -114.070312 110.859375 -112 L 110.859375 -99.390625 C 110.859375 -94.367188 110.421875 -90.601562 109.546875 -88.09375 C 108.671875 -85.582031 107.035156 -82.632812 104.640625 -79.25 L 91.375 -61.25 L 104.640625 -43.5625 C 107.148438 -40.175781 108.8125 -37.226562 109.625 -34.71875 C 110.445312 -32.207031 110.859375 -28.441406 110.859375 -23.421875 L 110.859375 -5.890625 C 110.859375 -3.816406 110.394531 -2.316406 109.46875 -1.390625 C 108.539062 -0.460938 107.039062 0 104.96875 0 L 80.078125 0 C 78.003906 0 76.5 -0.460938 75.5625 -1.390625 C 74.632812 -2.316406 74.171875 -3.816406 74.171875 -5.890625 L 74.171875 -22.109375 C 74.171875 -23.203125 74.113281 -24.347656 74 -25.546875 C 73.894531 -26.742188 73.460938 -27.890625 72.703125 -28.984375 L 65.5 -39.296875 C 64.84375 -40.285156 64.238281 -40.992188 63.6875 -41.421875 C 63.144531 -41.859375 62.4375 -42.078125 61.5625 -42.078125 L 59.28125 -42.078125 C 58.40625 -42.078125 57.691406 -41.859375 57.140625 -41.421875 C 56.597656 -40.992188 56 -40.285156 55.34375 -39.296875 L 47.984375 -28.984375 C 47.210938 -27.890625 46.769531 -26.742188 46.65625 -25.546875 C 46.550781 -24.347656 46.5 -23.203125 46.5 -22.109375 Z M 46.5 -5.890625 "/></g></g></g><g fill="#ff00ff" fill-opacity="1"><g transform="translate(218.435321, 259.233061)"><g><path d="M 42.578125 0 L 17.1875 0 C 15.113281 0 13.613281 -0.460938 12.6875 -1.390625 C 11.757812 -2.316406 11.296875 -3.816406 11.296875 -5.890625 L 11.296875 -112 C 11.296875 -114.070312 11.757812 -115.570312 12.6875 -116.5 C 13.613281 -117.4375 15.113281 -117.90625 17.1875 -117.90625 L 67.296875 -117.90625 C 82.148438 -117.90625 92.304688 -114.957031 97.765625 -109.0625 C 103.222656 -103.164062 105.953125 -95.46875 105.953125 -85.96875 L 105.953125 -65.015625 C 105.953125 -55.515625 103.222656 -47.816406 97.765625 -41.921875 C 92.304688 -36.023438 82.148438 -33.078125 67.296875 -33.078125 L 48.46875 -33.078125 L 48.46875 -5.890625 C 48.46875 -3.816406 48.003906 -2.316406 47.078125 -1.390625 C 46.148438 -0.460938 44.648438 0 42.578125 0 Z M 48.140625 -87.28125 L 48.140625 -62.546875 L 62.875 -62.546875 C 66.039062 -62.546875 68.113281 -63.363281 69.09375 -65 C 70.082031 -66.644531 70.578125 -68.503906 70.578125 -70.578125 L 70.578125 -79.25 C 70.578125 -81.320312 70.082031 -83.175781 69.09375 -84.8125 C 68.113281 -86.457031 66.039062 -87.28125 62.875 -87.28125 Z M 48.140625 -87.28125 "/></g></g></g><g fill="#ff00ff" fill-opacity="1"><g transform="translate(330.10779, 259.233061)"><g><path d="M 111.1875 -30.953125 C 111.1875 -25.929688 110.445312 -21.375 108.96875 -17.28125 C 107.5 -13.1875 104.878906 -9.691406 101.109375 -6.796875 C 97.347656 -3.898438 92.164062 -1.632812 85.5625 0 C 78.957031 1.632812 70.578125 2.453125 60.421875 2.453125 C 50.265625 2.453125 41.859375 1.632812 35.203125 0 C 28.546875 -1.632812 23.332031 -3.898438 19.5625 -6.796875 C 15.800781 -9.691406 13.179688 -13.1875 11.703125 -17.28125 C 10.234375 -21.375 9.5 -25.929688 9.5 -30.953125 L 9.5 -86.78125 C 9.5 -91.800781 10.234375 -96.359375 11.703125 -100.453125 C 13.179688 -104.546875 15.800781 -108.066406 19.5625 -111.015625 C 23.332031 -113.960938 28.546875 -116.253906 35.203125 -117.890625 C 41.859375 -119.535156 50.265625 -120.359375 60.421875 -120.359375 C 70.578125 -120.359375 78.957031 -119.535156 85.5625 -117.890625 C 92.164062 -116.253906 97.347656 -113.960938 101.109375 -111.015625 C 104.878906 -108.066406 107.5 -104.546875 108.96875 -100.453125 C 110.445312 -96.359375 111.1875 -91.800781 111.1875 -86.78125 Z M 46.671875 -36.84375 C 46.671875 -34.65625 47.488281 -32.820312 49.125 -31.34375 C 50.757812 -29.875 54.523438 -29.140625 60.421875 -29.140625 C 66.316406 -29.140625 70.082031 -29.875 71.71875 -31.34375 C 73.351562 -32.820312 74.171875 -34.65625 74.171875 -36.84375 L 74.171875 -80.890625 C 74.171875 -82.960938 73.351562 -84.734375 71.71875 -86.203125 C 70.082031 -87.679688 66.316406 -88.421875 60.421875 -88.421875 C 54.523438 -88.421875 50.757812 -87.679688 49.125 -86.203125 C 47.488281 -84.734375 46.671875 -82.960938 46.671875 -80.890625 Z M 46.671875 -36.84375 "/></g></g></g><g fill="#00ffff" fill-opacity="1"><g transform="translate(-0.797921, 251.276129)"><g><path d="M 93.171875 0 L 17.1875 0 C 15.113281 0 13.613281 -0.460938 12.6875 -1.390625 C 11.757812 -2.316406 11.296875 -3.816406 11.296875 -5.890625 L 11.296875 -112 C 11.296875 -114.070312 11.757812 -115.570312 12.6875 -116.5 C 13.613281 -117.4375 15.113281 -117.90625 17.1875 -117.90625 L 93.171875 -117.90625 C 95.242188 -117.90625 96.742188 -117.4375 97.671875 -116.5 C 98.597656 -115.570312 99.0625 -114.070312 99.0625 -112 L 99.0625 -92.84375 C 99.0625 -90.769531 98.597656 -89.269531 97.671875 -88.34375 C 96.742188 -87.414062 95.242188 -86.953125 93.171875 -86.953125 L 47.984375 -86.953125 L 47.984375 -74.34375 L 79.90625 -74.34375 C 81.976562 -74.34375 83.476562 -73.878906 84.40625 -72.953125 C 85.34375 -72.023438 85.8125 -70.523438 85.8125 -68.453125 L 85.8125 -50.921875 C 85.8125 -48.847656 85.34375 -47.347656 84.40625 -46.421875 C 83.476562 -45.492188 81.976562 -45.03125 79.90625 -45.03125 L 47.984375 -45.03125 L 47.984375 -30.953125 L 93.171875 -30.953125 C 95.242188 -30.953125 96.742188 -30.488281 97.671875 -29.5625 C 98.597656 -28.632812 99.0625 -27.128906 99.0625 -25.046875 L 99.0625 -5.890625 C 99.0625 -3.816406 98.597656 -2.316406 97.671875 -1.390625 C 96.742188 -0.460938 95.242188 0 93.171875 0 Z M 93.171875 0 "/></g></g></g><g fill="#00ffff" fill-opacity="1"><g transform="translate(106.289759, 251.276129)"><g><path d="M 46.5 -5.890625 C 46.5 -3.816406 46.035156 -2.316406 45.109375 -1.390625 C 44.179688 -0.460938 42.679688 0 40.609375 0 L 15.71875 0 C 13.644531 0 12.144531 -0.460938 11.21875 -1.390625 C 10.289062 -2.316406 9.828125 -3.816406 9.828125 -5.890625 L 9.828125 -23.421875 C 9.828125 -28.441406 10.257812 -32.207031 11.125 -34.71875 C 12 -37.226562 13.640625 -40.175781 16.046875 -43.5625 L 29.3125 -61.40625 L 16.046875 -79.25 C 13.535156 -82.632812 11.867188 -85.582031 11.046875 -88.09375 C 10.234375 -90.601562 9.828125 -94.367188 9.828125 -99.390625 L 9.828125 -112 C 9.828125 -114.070312 10.289062 -115.570312 11.21875 -116.5 C 12.144531 -117.4375 13.644531 -117.90625 15.71875 -117.90625 L 40.9375 -117.90625 C 43.007812 -117.90625 44.507812 -117.4375 45.4375 -116.5 C 46.363281 -115.570312 46.828125 -114.070312 46.828125 -112 L 46.828125 -100.703125 C 46.828125 -99.609375 46.878906 -98.460938 46.984375 -97.265625 C 47.097656 -96.066406 47.539062 -94.921875 48.3125 -93.828125 L 55.515625 -83.515625 C 56.054688 -82.640625 56.625 -81.957031 57.21875 -81.46875 C 57.820312 -80.976562 58.5625 -80.734375 59.4375 -80.734375 L 61.40625 -80.734375 C 62.28125 -80.734375 62.988281 -80.976562 63.53125 -81.46875 C 64.082031 -81.957031 64.6875 -82.640625 65.34375 -83.515625 L 72.703125 -93.828125 C 73.460938 -94.921875 73.894531 -96.066406 74 -97.265625 C 74.113281 -98.460938 74.171875 -99.609375 74.171875 -100.703125 L 74.171875 -112 C 74.171875 -114.070312 74.632812 -115.570312 75.5625 -116.5 C 76.5 -117.4375 78.003906 -117.90625 80.078125 -117.90625 L 104.96875 -117.90625 C 107.039062 -117.90625 108.539062 -117.4375 109.46875 -116.5 C 110.394531 -115.570312 110.859375 -114.070312 110.859375 -112 L 110.859375 -99.390625 C 110.859375 -94.367188 110.421875 -90.601562 109.546875 -88.09375 C 108.671875 -85.582031 107.035156 -82.632812 104.640625 -79.25 L 91.375 -61.25 L 104.640625 -43.5625 C 107.148438 -40.175781 108.8125 -37.226562 109.625 -34.71875 C 110.445312 -32.207031 110.859375 -28.441406 110.859375 -23.421875 L 110.859375 -5.890625 C 110.859375 -3.816406 110.394531 -2.316406 109.46875 -1.390625 C 108.539062 -0.460938 107.039062 0 104.96875 0 L 80.078125 0 C 78.003906 0 76.5 -0.460938 75.5625 -1.390625 C 74.632812 -2.316406 74.171875 -3.816406 74.171875 -5.890625 L 74.171875 -22.109375 C 74.171875 -23.203125 74.113281 -24.347656 74 -25.546875 C 73.894531 -26.742188 73.460938 -27.890625 72.703125 -28.984375 L 65.5 -39.296875 C 64.84375 -40.285156 64.238281 -40.992188 63.6875 -41.421875 C 63.144531 -41.859375 62.4375 -42.078125 61.5625 -42.078125 L 59.28125 -42.078125 C 58.40625 -42.078125 57.691406 -41.859375 57.140625 -41.421875 C 56.597656 -40.992188 56 -40.285156 55.34375 -39.296875 L 47.984375 -28.984375 C 47.210938 -27.890625 46.769531 -26.742188 46.65625 -25.546875 C 46.550781 -24.347656 46.5 -23.203125 46.5 -22.109375 Z M 46.5 -5.890625 "/></g></g></g><g fill="#00ffff" fill-opacity="1"><g transform="translate(226.968086, 251.276129)"><g><path d="M 42.578125 0 L 17.1875 0 C 15.113281 0 13.613281 -0.460938 12.6875 -1.390625 C 11.757812 -2.316406 11.296875 -3.816406 11.296875 -5.890625 L 11.296875 -112 C 11.296875 -114.070312 11.757812 -115.570312 12.6875 -116.5 C 13.613281 -117.4375 15.113281 -117.90625 17.1875 -117.90625 L 67.296875 -117.90625 C 82.148438 -117.90625 92.304688 -114.957031 97.765625 -109.0625 C 103.222656 -103.164062 105.953125 -95.46875 105.953125 -85.96875 L 105.953125 -65.015625 C 105.953125 -55.515625 103.222656 -47.816406 97.765625 -41.921875 C 92.304688 -36.023438 82.148438 -33.078125 67.296875 -33.078125 L 48.46875 -33.078125 L 48.46875 -5.890625 C 48.46875 -3.816406 48.003906 -2.316406 47.078125 -1.390625 C 46.148438 -0.460938 44.648438 0 42.578125 0 Z M 48.140625 -87.28125 L 48.140625 -62.546875 L 62.875 -62.546875 C 66.039062 -62.546875 68.113281 -63.363281 69.09375 -65 C 70.082031 -66.644531 70.578125 -68.503906 70.578125 -70.578125 L 70.578125 -79.25 C 70.578125 -81.320312 70.082031 -83.175781 69.09375 -84.8125 C 68.113281 -86.457031 66.039062 -87.28125 62.875 -87.28125 Z M 48.140625 -87.28125 "/></g></g></g><g clip-path="url(#81f786d8ea)"><g fill="#00ffff" fill-opacity="1"><g transform="translate(338.640555, 251.276129)"><g><path d="M 111.1875 -30.953125 C 111.1875 -25.929688 110.445312 -21.375 108.96875 -17.28125 C 107.5 -13.1875 104.878906 -9.691406 101.109375 -6.796875 C 97.347656 -3.898438 92.164062 -1.632812 85.5625 0 C 78.957031 1.632812 70.578125 2.453125 60.421875 2.453125 C 50.265625 2.453125 41.859375 1.632812 35.203125 0 C 28.546875 -1.632812 23.332031 -3.898438 19.5625 -6.796875 C 15.800781 -9.691406 13.179688 -13.1875 11.703125 -17.28125 C 10.234375 -21.375 9.5 -25.929688 9.5 -30.953125 L 9.5 -86.78125 C 9.5 -91.800781 10.234375 -96.359375 11.703125 -100.453125 C 13.179688 -104.546875 15.800781 -108.066406 19.5625 -111.015625 C 23.332031 -113.960938 28.546875 -116.253906 35.203125 -117.890625 C 41.859375 -119.535156 50.265625 -120.359375 60.421875 -120.359375 C 70.578125 -120.359375 78.957031 -119.535156 85.5625 -117.890625 C 92.164062 -116.253906 97.347656 -113.960938 101.109375 -111.015625 C 104.878906 -108.066406 107.5 -104.546875 108.96875 -100.453125 C 110.445312 -96.359375 111.1875 -91.800781 111.1875 -86.78125 Z M 46.671875 -36.84375 C 46.671875 -34.65625 47.488281 -32.820312 49.125 -31.34375 C 50.757812 -29.875 54.523438 -29.140625 60.421875 -29.140625 C 66.316406 -29.140625 70.082031 -29.875 71.71875 -31.34375 C 73.351562 -32.820312 74.171875 -34.65625 74.171875 -36.84375 L 74.171875 -80.890625 C 74.171875 -82.960938 73.351562 -84.734375 71.71875 -86.203125 C 70.082031 -87.679688 66.316406 -88.421875 60.421875 -88.421875 C 54.523438 -88.421875 50.757812 -87.679688 49.125 -86.203125 C 47.488281 -84.734375 46.671875 -82.960938 46.671875 -80.890625 Z M 46.671875 -36.84375 "/></g></g></g></g><g fill="#000000" fill-opacity="1"><g transform="translate(-5.064303, 255.254595)"><g><path d="M 93.171875 0 L 17.1875 0 C 15.113281 0 13.613281 -0.460938 12.6875 -1.390625 C 11.757812 -2.316406 11.296875 -3.816406 11.296875 -5.890625 L 11.296875 -112 C 11.296875 -114.070312 11.757812 -115.570312 12.6875 -116.5 C 13.613281 -117.4375 15.113281 -117.90625 17.1875 -117.90625 L 93.171875 -117.90625 C 95.242188 -117.90625 96.742188 -117.4375 97.671875 -116.5 C 98.597656 -115.570312 99.0625 -114.070312 99.0625 -112 L 99.0625 -92.84375 C 99.0625 -90.769531 98.597656 -89.269531 97.671875 -88.34375 C 96.742188 -87.414062 95.242188 -86.953125 93.171875 -86.953125 L 47.984375 -86.953125 L 47.984375 -74.34375 L 79.90625 -74.34375 C 81.976562 -74.34375 83.476562 -73.878906 84.40625 -72.953125 C 85.34375 -72.023438 85.8125 -70.523438 85.8125 -68.453125 L 85.8125 -50.921875 C 85.8125 -48.847656 85.34375 -47.347656 84.40625 -46.421875 C 83.476562 -45.492188 81.976562 -45.03125 79.90625 -45.03125 L 47.984375 -45.03125 L 47.984375 -30.953125 L 93.171875 -30.953125 C 95.242188 -30.953125 96.742188 -30.488281 97.671875 -29.5625 C 98.597656 -28.632812 99.0625 -27.128906 99.0625 -25.046875 L 99.0625 -5.890625 C 99.0625 -3.816406 98.597656 -2.316406 97.671875 -1.390625 C 96.742188 -0.460938 95.242188 0 93.171875 0 Z M 93.171875 0 "/></g></g></g><g fill="#000000" fill-opacity="1"><g transform="translate(102.023377, 255.254595)"><g><path d="M 46.5 -5.890625 C 46.5 -3.816406 46.035156 -2.316406 45.109375 -1.390625 C 44.179688 -0.460938 42.679688 0 40.609375 0 L 15.71875 0 C 13.644531 0 12.144531 -0.460938 11.21875 -1.390625 C 10.289062 -2.316406 9.828125 -3.816406 9.828125 -5.890625 L 9.828125 -23.421875 C 9.828125 -28.441406 10.257812 -32.207031 11.125 -34.71875 C 12 -37.226562 13.640625 -40.175781 16.046875 -43.5625 L 29.3125 -61.40625 L 16.046875 -79.25 C 13.535156 -82.632812 11.867188 -85.582031 11.046875 -88.09375 C 10.234375 -90.601562 9.828125 -94.367188 9.828125 -99.390625 L 9.828125 -112 C 9.828125 -114.070312 10.289062 -115.570312 11.21875 -116.5 C 12.144531 -117.4375 13.644531 -117.90625 15.71875 -117.90625 L 40.9375 -117.90625 C 43.007812 -117.90625 44.507812 -117.4375 45.4375 -116.5 C 46.363281 -115.570312 46.828125 -114.070312 46.828125 -112 L 46.828125 -100.703125 C 46.828125 -99.609375 46.878906 -98.460938 46.984375 -97.265625 C 47.097656 -96.066406 47.539062 -94.921875 48.3125 -93.828125 L 55.515625 -83.515625 C 56.054688 -82.640625 56.625 -81.957031 57.21875 -81.46875 C 57.820312 -80.976562 58.5625 -80.734375 59.4375 -80.734375 L 61.40625 -80.734375 C 62.28125 -80.734375 62.988281 -80.976562 63.53125 -81.46875 C 64.082031 -81.957031 64.6875 -82.640625 65.34375 -83.515625 L 72.703125 -93.828125 C 73.460938 -94.921875 73.894531 -96.066406 74 -97.265625 C 74.113281 -98.460938 74.171875 -99.609375 74.171875 -100.703125 L 74.171875 -112 C 74.171875 -114.070312 74.632812 -115.570312 75.5625 -116.5 C 76.5 -117.4375 78.003906 -117.90625 80.078125 -117.90625 L 104.96875 -117.90625 C 107.039062 -117.90625 108.539062 -117.4375 109.46875 -116.5 C 110.394531 -115.570312 110.859375 -114.070312 110.859375 -112 L 110.859375 -99.390625 C 110.859375 -94.367188 110.421875 -90.601562 109.546875 -88.09375 C 108.671875 -85.582031 107.035156 -82.632812 104.640625 -79.25 L 91.375 -61.25 L 104.640625 -43.5625 C 107.148438 -40.175781 108.8125 -37.226562 109.625 -34.71875 C 110.445312 -32.207031 110.859375 -28.441406 110.859375 -23.421875 L 110.859375 -5.890625 C 110.859375 -3.816406 110.394531 -2.316406 109.46875 -1.390625 C 108.539062 -0.460938 107.039062 0 104.96875 0 L 80.078125 0 C 78.003906 0 76.5 -0.460938 75.5625 -1.390625 C 74.632812 -2.316406 74.171875 -3.816406 74.171875 -5.890625 L 74.171875 -22.109375 C 74.171875 -23.203125 74.113281 -24.347656 74 -25.546875 C 73.894531 -26.742188 73.460938 -27.890625 72.703125 -28.984375 L 65.5 -39.296875 C 64.84375 -40.285156 64.238281 -40.992188 63.6875 -41.421875 C 63.144531 -41.859375 62.4375 -42.078125 61.5625 -42.078125 L 59.28125 -42.078125 C 58.40625 -42.078125 57.691406 -41.859375 57.140625 -41.421875 C 56.597656 -40.992188 56 -40.285156 55.34375 -39.296875 L 47.984375 -28.984375 C 47.210938 -27.890625 46.769531 -26.742188 46.65625 -25.546875 C 46.550781 -24.347656 46.5 -23.203125 46.5 -22.109375 Z M 46.5 -5.890625 "/></g></g></g><g fill="#000000" fill-opacity="1"><g transform="translate(222.701703, 255.254595)"><g><path d="M 42.578125 0 L 17.1875 0 C 15.113281 0 13.613281 -0.460938 12.6875 -1.390625 C 11.757812 -2.316406 11.296875 -3.816406 11.296875 -5.890625 L 11.296875 -112 C 11.296875 -114.070312 11.757812 -115.570312 12.6875 -116.5 C 13.613281 -117.4375 15.113281 -117.90625 17.1875 -117.90625 L 67.296875 -117.90625 C 82.148438 -117.90625 92.304688 -114.957031 97.765625 -109.0625 C 103.222656 -103.164062 105.953125 -95.46875 105.953125 -85.96875 L 105.953125 -65.015625 C 105.953125 -55.515625 103.222656 -47.816406 97.765625 -41.921875 C 92.304688 -36.023438 82.148438 -33.078125 67.296875 -33.078125 L 48.46875 -33.078125 L 48.46875 -5.890625 C 48.46875 -3.816406 48.003906 -2.316406 47.078125 -1.390625 C 46.148438 -0.460938 44.648438 0 42.578125 0 Z M 48.140625 -87.28125 L 48.140625 -62.546875 L 62.875 -62.546875 C 66.039062 -62.546875 68.113281 -63.363281 69.09375 -65 C 70.082031 -66.644531 70.578125 -68.503906 70.578125 -70.578125 L 70.578125 -79.25 C 70.578125 -81.320312 70.082031 -83.175781 69.09375 -84.8125 C 68.113281 -86.457031 66.039062 -87.28125 62.875 -87.28125 Z M 48.140625 -87.28125 "/></g></g></g><g fill="#000000" fill-opacity="1"><g transform="translate(334.374172, 255.254595)"><g><path d="M 111.1875 -30.953125 C 111.1875 -25.929688 110.445312 -21.375 108.96875 -17.28125 C 107.5 -13.1875 104.878906 -9.691406 101.109375 -6.796875 C 97.347656 -3.898438 92.164062 -1.632812 85.5625 0 C 78.957031 1.632812 70.578125 2.453125 60.421875 2.453125 C 50.265625 2.453125 41.859375 1.632812 35.203125 0 C 28.546875 -1.632812 23.332031 -3.898438 19.5625 -6.796875 C 15.800781 -9.691406 13.179688 -13.1875 11.703125 -17.28125 C 10.234375 -21.375 9.5 -25.929688 9.5 -30.953125 L 9.5 -86.78125 C 9.5 -91.800781 10.234375 -96.359375 11.703125 -100.453125 C 13.179688 -104.546875 15.800781 -108.066406 19.5625 -111.015625 C 23.332031 -113.960938 28.546875 -116.253906 35.203125 -117.890625 C 41.859375 -119.535156 50.265625 -120.359375 60.421875 -120.359375 C 70.578125 -120.359375 78.957031 -119.535156 85.5625 -117.890625 C 92.164062 -116.253906 97.347656 -113.960938 101.109375 -111.015625 C 104.878906 -108.066406 107.5 -104.546875 108.96875 -100.453125 C 110.445312 -96.359375 111.1875 -91.800781 111.1875 -86.78125 Z M 46.671875 -36.84375 C 46.671875 -34.65625 47.488281 -32.820312 49.125 -31.34375 C 50.757812 -29.875 54.523438 -29.140625 60.421875 -29.140625 C 66.316406 -29.140625 70.082031 -29.875 71.71875 -31.34375 C 73.351562 -32.820312 74.171875 -34.65625 74.171875 -36.84375 L 74.171875 -80.890625 C 74.171875 -82.960938 73.351562 -84.734375 71.71875 -86.203125 C 70.082031 -87.679688 66.316406 -88.421875 60.421875 -88.421875 C 54.523438 -88.421875 50.757812 -87.679688 49.125 -86.203125 C 47.488281 -84.734375 46.671875 -82.960938 46.671875 -80.890625 Z M 46.671875 -36.84375 "/></g></g></g></svg>